<?xml version="1.0" encoding="utf-8"?>
<!-- Generator: Adobe Illustrator 19.2.1, SVG Export Plug-In . SVG Version: 6.00 Build 0)  -->
<svg version="1.1" id="Layer_1" xmlns="http://www.w3.org/2000/svg" xmlns:xlink="http://www.w3.org/1999/xlink" x="0px" y="0px"
	 viewBox="0 0 165 165" style="enable-background:new 0 0 165 165;" xml:space="preserve">
<style type="text/css">
	.st0{fill:#F7F7F7;}
</style>
<g>
	<path class="st0" d="M82.9,164.2c-44.8,0-81.3-36.5-81.3-81.3c0-44.8,36.5-81.3,81.3-81.3c44.8,0,81.3,36.5,81.3,81.3
		C164.2,127.7,127.7,164.2,82.9,164.2z M21.8,38.9c-8.9,12.4-14.2,27.6-14.2,44c0,41.5,33.8,75.3,75.3,75.3
		c41.5,0,75.3-33.8,75.3-75.3c0-16.5-5.3-31.7-14.3-44.1v44.1h-6V31.5c-4.2-4.5-8.9-8.5-14.1-11.8V83c0,22.6-18.3,40.9-40.9,40.9v-6
		c19.2,0,34.9-15.7,34.9-34.9V16.2c-10.4-5.5-22.3-8.6-34.9-8.6c-12.6,0-24.5,3.1-35,8.6v66.7c0,19.2,15.7,34.9,34.9,34.9v6
		c-22.6,0-40.9-18.3-40.9-40.9V19.8c-5.2,3.4-9.9,7.4-14.1,11.9v51.3h-6V38.9z M82.9,143.9v-6c30.3,0,55-24.7,55-55h6
		C143.9,116.5,116.5,143.9,82.9,143.9z M82.8,143.9c-33.6,0-61-27.4-61-61h6c0,30.3,24.7,55,55,55V143.9z"/>
</g>
</svg>
