<?xml version="1.0" encoding="utf-8"?>
<!-- Generator: Adobe Illustrator 19.0.1, SVG Export Plug-In . SVG Version: 6.00 Build 0)  -->
<svg version="1.1" id="Layer_1" xmlns="http://www.w3.org/2000/svg" xmlns:xlink="http://www.w3.org/1999/xlink" x="0px" y="0px"
	 viewBox="0 0 300 300" style="enable-background:new 0 0 300 300;" xml:space="preserve">
<g id="Layer_3">
	<polygon fill="#FFFFFF" stroke="#000000" stroke-miterlimit="10" points="300,151.5 275,194.8 250,238.1 250,238.1 225,281.4 75,281.4 50,238.1 50,238.1 25,194.8 0,151.5 
		25,108.2 25,108.2 50,64.9 75,21.6 225,21.6 250,64.9 275,108.2 275,108.2 	"/>
	<line fill="none" stroke="#000000" stroke-miterlimit="10" x1="0" y1="151.5" x2="300" y2="151.5"/>
	<polyline fill="none" stroke="#000000" stroke-miterlimit="10" points="25,194.8 75,194.8 125,194.8 175,194.8 225,194.8 275,194.8 	"/>
	<polyline fill="none" stroke="#000000" stroke-miterlimit="10" points="50,238.1 100,238.1 150,238.1 200,238.1 250,238.1 	"/>
	<polyline fill="none" stroke="#000000" stroke-miterlimit="10" points="225,281.4 175,281.4 125,281.4 75,281.4 	"/>
	<polyline fill="none" stroke="#000000" stroke-miterlimit="10" points="25,108.2 75,108.2 125,108.2 175,108.2 225,108.2 275,108.2 	"/>
	<polyline fill="none" stroke="#000000" stroke-miterlimit="10" points="50,64.9 100,64.9 150,64.9 200,64.9 250,64.9 	"/>
	<polyline fill="none" stroke="#000000" stroke-miterlimit="10" points="225,21.6 175,21.6 125,21.6 75,21.6 	"/>
	<polyline fill="none" stroke="#000000" stroke-miterlimit="10" points="300,151.5 275,108.2 275,108.2 250,64.9 225,21.6 	"/>
	<polyline fill="none" stroke="#000000" stroke-miterlimit="10" points="175,21.6 200,64.9 225,108.2 250,151.5 275,194.8 	"/>
	<polyline fill="none" stroke="#000000" stroke-miterlimit="10" points="125,21.6 150,64.9 175,108.2 175,108.2 200,151.5 225,194.8 250,238.1 250,238.1 	"/>
	<polyline fill="none" stroke="#000000" stroke-miterlimit="10" points="75,21.6 100,64.9 125,108.2 125,108.2 150,151.5 175,194.8 200,238.1 200,238.1 225,281.4 	"/>
	<polyline fill="none" stroke="#000000" stroke-miterlimit="10" points="175,281.4 150,238.1 150,238.1 125,194.8 100,151.5 75,108.2 50,64.9 	"/>
	<polyline fill="none" stroke="#000000" stroke-miterlimit="10" points="25,108.2 25,108.2 50,151.5 75,194.8 100,238.1 100,238.1 125,281.4 	"/>
	<polyline fill="none" stroke="#000000" stroke-miterlimit="10" points="75,281.4 50,238.1 50,238.1 25,194.8 0,151.5 	"/>
	<polyline fill="none" stroke="#000000" stroke-miterlimit="10" points="225,281.4 250,238.1 250,238.1 275,194.8 300,151.5 	"/>
	<polyline fill="none" stroke="#000000" stroke-miterlimit="10" points="0,151.5 25,108.2 25,108.2 50,64.9 75,21.6 	"/>
	<polyline fill="none" stroke="#000000" stroke-miterlimit="10" points="25,194.8 50,151.5 75,108.2 100,64.9 125,21.6 	"/>
	<polyline fill="none" stroke="#000000" stroke-miterlimit="10" points="50,238.1 50,238.1 75,194.8 100,151.5 125,108.2 125,108.2 150,64.9 175,21.6 	"/>
	<polyline fill="none" stroke="#000000" stroke-miterlimit="10" points="225,21.6 200,64.9 175,108.2 175,108.2 150,151.5 125,194.8 100,238.1 100,238.1 75,281.4 	"/>
	<polyline fill="none" stroke="#000000" stroke-miterlimit="10" points="125,281.4 150,238.1 150,238.1 175,194.8 200,151.5 225,108.2 250,64.9 	"/>
	<polyline fill="none" stroke="#000000" stroke-miterlimit="10" points="275,108.2 275,108.2 250,151.5 225,194.8 200,238.1 200,238.1 175,281.4 	"/>
</g>
<g id="Layer_5">
</g>
</svg>
