<?xml version="1.0" encoding="utf-8"?>
<!-- Generator: Adobe Illustrator 19.0.1, SVG Export Plug-In . SVG Version: 6.00 Build 0)  -->
<svg version="1.1" id="Layer_1" xmlns="http://www.w3.org/2000/svg" xmlns:xlink="http://www.w3.org/1999/xlink" x="0px" y="0px"
	 viewBox="0 0 300 300" style="enable-background:new 0 0 300 300;" xml:space="preserve">
<g id="Layer_3">
	<polygon fill="#FFFFFF" stroke="#000000" stroke-miterlimit="10" points="75,281.4 0,151.5 75,21.6 225,21.6 300,151.5 225,281.4 	"/>
</g>
<g id="Layer_1_1_">
	<line fill="none" stroke="#000000" stroke-miterlimit="10" x1="150" y1="21.6" x2="150" y2="281.4"/>
	<line fill="none" stroke="#000000" stroke-miterlimit="10" x1="0" y1="151.5" x2="300" y2="151.5"/>
	<line fill="none" stroke="#000000" stroke-miterlimit="10" x1="225" y1="21.6" x2="75" y2="281.4"/>
	<line fill="none" stroke="#000000" stroke-miterlimit="10" x1="75" y1="21.6" x2="225" y2="281.4"/>
	<line fill="none" stroke="#000000" stroke-miterlimit="10" x1="225" y1="21.6" x2="225" y2="281.4"/>
	<line fill="none" stroke="#000000" stroke-miterlimit="10" x1="75" y1="21.6" x2="75" y2="281.4"/>
	<line fill="none" stroke="#000000" stroke-miterlimit="10" x1="37.5" y1="216.5" x2="262.5" y2="216.5"/>
	<line fill="none" stroke="#000000" stroke-miterlimit="10" x1="37.5" y1="86.5" x2="262.5" y2="86.5"/>
	<line fill="none" stroke="#000000" stroke-miterlimit="10" x1="150" y1="281.4" x2="37.5" y2="86.5"/>
	<line fill="none" stroke="#000000" stroke-miterlimit="10" x1="150" y1="281.4" x2="262.5" y2="86.5"/>
	<line fill="none" stroke="#000000" stroke-miterlimit="10" x1="150" y1="21.6" x2="262.5" y2="216.5"/>
	<line fill="none" stroke="#000000" stroke-miterlimit="10" x1="150" y1="21.6" x2="37.5" y2="216.5"/>
	<line fill="none" stroke="#000000" stroke-miterlimit="10" x1="262.5" y1="86.5" x2="262.5" y2="216.5"/>
	<line fill="none" stroke="#000000" stroke-miterlimit="10" x1="37.5" y1="86.5" x2="37.5" y2="216.5"/>
	<line fill="none" stroke="#000000" stroke-miterlimit="10" x1="187.5" y1="21.6" x2="187.5" y2="281.4"/>
	<line fill="none" stroke="#000000" stroke-miterlimit="10" x1="112.5" y1="21.6" x2="112.5" y2="281.4"/>
</g>
</svg>
